<svg xmlns="http://www.w3.org/2000/svg" xml:space="preserve" style="enable-background:new 0 0 375.8 79.2" viewBox="0 0 375.8 79.2"><path fill="currentColor" d="M172.1 52.9c-.2 4.7-1.2 7.3-3.7 9.9-3.1 3.2-8 4.8-14.9 4.8-7.4 0-12.1-1.9-15.3-6.2-2.4-3.3-3.4-7.3-3.4-14.6V35.6c0-7.9 1.1-12.1 4.1-15.5 3.4-3.7 7.7-5.3 14.6-5.3 11.7 0 17.3 4.8 17.8 15.3l-10.2.7c-.6-4.9-2.9-7.1-7.5-7.1-5.9 0-7.8 3.1-7.8 12.7v9.5c0 9.7 1.9 12.7 7.8 12.7 4.9 0 7.4-2.2 8-7.1l10.5 1.4zM180.1 35.1c0-7.7 1.2-11.9 4.3-15.2 3.5-3.7 7.8-5.3 15.1-5.3 7.8 0 12.6 1.8 16 6.1 2.5 3.2 3.5 7.2 3.5 14.3v12.1c0 7.7-1.2 11.9-4.3 15.2-3.5 3.7-7.8 5.3-15.2 5.3-7.7 0-12.5-1.8-15.9-6.1-2.5-3.2-3.5-7.3-3.5-14.3V35.1zm27.8.9c0-9.4-2.1-12.5-8.4-12.5-6.3 0-8.4 3.1-8.4 12.5v10.2c0 9.4 2.1 12.5 8.4 12.5 6.3 0 8.4-3.1 8.4-12.5V36zM240.5 66.8h-11.1V15.4h19.5c6.9 0 10.6 1 13.3 3.7 2.6 2.6 3.7 6 3.7 11.4 0 8.9-2.7 13.1-9.3 15l11.1 21.3h-12.2l-9.6-20.4h-5.4v20.4zm7.5-28.9c5.1 0 7.1-1.9 7.1-6.8s-1.9-6.8-7.2-6.8h-7.6V38h7.7zM276.1 15.4h32.5v9h-21.5v12h18.2v9h-18.2v12.5h21.8v9h-32.8V15.4zM10.6 8H4.9V4.3h16V8h-5.7v17.7h-4.6V8zM24.2 4.3h4.6V13h6.3V4.3h4.6v21.4h-4.6v-8.9h-6.3v8.9h-4.6V4.3zM44.6 4.3h13.5V8h-9v5h7.6v3.8h-7.6V22h9.1v3.8H44.6V4.3zM373.8 40.8l-3.4 3.4-29 29-3.4 3.4-6.8-6.8 3.4-3.4 25.6-25.6-25.5-25.6-3.4-3.4L338 5l3.4 3.4 29 29 3.4 3.4zM76.3 37.4l29-29 3.4-3.4 6.8 6.8-3.4 3.4-25.6 25.6 25.6 25.6 3.4 3.4-6.8 6.8-3.4-3.4-29-29-3.4-3.4 3.4-3.4z"/></svg>
